<?xml version="1.0" encoding="us-ascii" standalone="no"?><svg xmlns="http://www.w3.org/2000/svg" xmlns:xlink="http://www.w3.org/1999/xlink" contentStyleType="text/css" height="1097px" preserveAspectRatio="none" style="width:2296px;height:1097px;background:#FFFFFF;" version="1.1" viewBox="0 0 2296 1097" width="2296px" zoomAndPan="magnify"><defs/><g><rect fill="none" height="46.6211" style="stroke:#000000;stroke-width:1.5;" width="1663.5" x="10" y="157.1094"/><rect fill="none" height="574.1445" style="stroke:#000000;stroke-width:1.5;" width="2235.5" x="10" y="217.7305"/><rect fill="none" height="162.5078" style="stroke:#000000;stroke-width:1.5;" width="1373" x="408.5" y="313.6621"/><rect fill="none" height="90.8867" style="stroke:#000000;stroke-width:1.5;" width="1435" x="408.5" y="693.9883"/><rect fill="none" height="193.1738" style="stroke:#000000;stroke-width:1.5;" width="2280.5" x="10" y="805.875"/><line style="stroke:#181818;stroke-width:0.5;stroke-dasharray:5.0,5.0;" x1="76" x2="76" y1="81.4883" y2="1016.0488"/><line style="stroke:#181818;stroke-width:0.5;stroke-dasharray:5.0,5.0;" x1="462.5" x2="462.5" y1="81.4883" y2="1016.0488"/><line style="stroke:#181818;stroke-width:0.5;stroke-dasharray:5.0,5.0;" x1="806" x2="806" y1="81.4883" y2="1016.0488"/><line style="stroke:#181818;stroke-width:0.5;stroke-dasharray:5.0,5.0;" x1="1266.5" x2="1266.5" y1="81.4883" y2="1016.0488"/><line style="stroke:#181818;stroke-width:0.5;stroke-dasharray:5.0,5.0;" x1="1398.5" x2="1398.5" y1="81.4883" y2="1016.0488"/><line style="stroke:#181818;stroke-width:0.5;stroke-dasharray:5.0,5.0;" x1="1479.5" x2="1479.5" y1="81.4883" y2="1016.0488"/><line style="stroke:#181818;stroke-width:0.5;stroke-dasharray:5.0,5.0;" x1="1545.5" x2="1545.5" y1="81.4883" y2="1016.0488"/><line style="stroke:#181818;stroke-width:0.5;stroke-dasharray:5.0,5.0;" x1="1626.5" x2="1626.5" y1="81.4883" y2="1016.0488"/><line style="stroke:#181818;stroke-width:0.5;stroke-dasharray:5.0,5.0;" x1="1722.5" x2="1722.5" y1="81.4883" y2="1016.0488"/><line style="stroke:#181818;stroke-width:0.5;stroke-dasharray:5.0,5.0;" x1="1807.5" x2="1807.5" y1="81.4883" y2="1016.0488"/><line style="stroke:#181818;stroke-width:0.5;stroke-dasharray:5.0,5.0;" x1="2240.5" x2="2240.5" y1="81.4883" y2="1016.0488"/><text fill="#000000" font-family="sans-serif" font-size="14" lengthAdjust="spacing" textLength="106" x="20" y="78.5352">Data Consumer</text><ellipse cx="76" cy="13.5" fill="#E2E2F0" rx="8" ry="8" style="stroke:#181818;stroke-width:0.5;"/><path d="M76,21.5 L76,48.5 M63,29.5 L89,29.5 M76,48.5 L63,63.5 M76,48.5 L89,63.5 " fill="none" style="stroke:#181818;stroke-width:0.5;"/><text fill="#000000" font-family="sans-serif" font-size="14" lengthAdjust="spacing" textLength="106" x="20" y="1028.584">Data Consumer</text><ellipse cx="76" cy="1040.0371" fill="#E2E2F0" rx="8" ry="8" style="stroke:#181818;stroke-width:0.5;"/><path d="M76,1048.0371 L76,1075.0371 M63,1056.0371 L89,1056.0371 M76,1075.0371 L63,1090.0371 M76,1075.0371 L89,1090.0371 " fill="none" style="stroke:#181818;stroke-width:0.5;"/><text fill="#000000" font-family="sans-serif" font-size="14" lengthAdjust="spacing" textLength="83" x="418.5" y="78.5352">Marketplace</text><ellipse cx="463" cy="49" fill="#E2E2F0" rx="12" ry="12" style="stroke:#181818;stroke-width:0.5;"/><line style="stroke:#181818;stroke-width:0.5;" x1="451" x2="475" y1="63" y2="63"/><text fill="#000000" font-family="sans-serif" font-size="14" lengthAdjust="spacing" textLength="83" x="418.5" y="1028.584">Marketplace</text><ellipse cx="463" cy="1047.5371" fill="#E2E2F0" rx="12" ry="12" style="stroke:#181818;stroke-width:0.5;"/><line style="stroke:#181818;stroke-width:0.5;" x1="451" x2="475" y1="1061.5371" y2="1061.5371"/><text fill="#000000" font-family="sans-serif" font-size="14" lengthAdjust="spacing" textLength="150" x="728" y="78.5352">Audit Backend Service</text><ellipse cx="806" cy="49" fill="#E2E2F0" rx="12" ry="12" style="stroke:#181818;stroke-width:0.5;"/><line style="stroke:#181818;stroke-width:0.5;" x1="794" x2="818" y1="63" y2="63"/><text fill="#000000" font-family="sans-serif" font-size="14" lengthAdjust="spacing" textLength="150" x="728" y="1028.584">Audit Backend Service</text><ellipse cx="806" cy="1047.5371" fill="#E2E2F0" rx="12" ry="12" style="stroke:#181818;stroke-width:0.5;"/><line style="stroke:#181818;stroke-width:0.5;" x1="794" x2="818" y1="1061.5371" y2="1061.5371"/><text fill="#000000" font-family="sans-serif" font-size="14" lengthAdjust="spacing" textLength="141" x="1193.5" y="78.5352">Audit Smart contract</text><ellipse cx="1267" cy="49" fill="#E2E2F0" rx="12" ry="12" style="stroke:#181818;stroke-width:0.5;"/><line style="stroke:#181818;stroke-width:0.5;" x1="1255" x2="1279" y1="63" y2="63"/><text fill="#000000" font-family="sans-serif" font-size="14" lengthAdjust="spacing" textLength="141" x="1193.5" y="1028.584">Audit Smart contract</text><ellipse cx="1267" cy="1047.5371" fill="#E2E2F0" rx="12" ry="12" style="stroke:#181818;stroke-width:0.5;"/><line style="stroke:#181818;stroke-width:0.5;" x1="1255" x2="1279" y1="1061.5371" y2="1061.5371"/><text fill="#000000" font-family="sans-serif" font-size="14" lengthAdjust="spacing" textLength="91" x="1350.5" y="78.5352">Off-Chain DB</text><path d="M1381,29 C1381,19 1399,19 1399,19 C1399,19 1417,19 1417,29 L1417,55 C1417,65 1399,65 1399,65 C1399,65 1381,65 1381,55 L1381,29 " fill="#E2E2F0" style="stroke:#181818;stroke-width:1.5;"/><path d="M1381,29 C1381,39 1399,39 1399,39 C1399,39 1417,39 1417,29 " fill="none" style="stroke:#181818;stroke-width:1.5;"/><text fill="#000000" font-family="sans-serif" font-size="14" lengthAdjust="spacing" textLength="91" x="1350.5" y="1028.584">Off-Chain DB</text><path d="M1381,1041.5371 C1381,1031.5371 1399,1031.5371 1399,1031.5371 C1399,1031.5371 1417,1031.5371 1417,1041.5371 L1417,1067.5371 C1417,1077.5371 1399,1077.5371 1399,1077.5371 C1399,1077.5371 1381,1077.5371 1381,1067.5371 L1381,1041.5371 " fill="#E2E2F0" style="stroke:#181818;stroke-width:1.5;"/><path d="M1381,1041.5371 C1381,1051.5371 1399,1051.5371 1399,1051.5371 C1399,1051.5371 1417,1051.5371 1417,1041.5371 " fill="none" style="stroke:#181818;stroke-width:1.5;"/><text fill="#000000" font-family="sans-serif" font-size="14" lengthAdjust="spacing" textLength="38" x="1457.5" y="78.5352">TACo</text><ellipse cx="1479.5" cy="49" fill="#E2E2F0" rx="12" ry="12" style="stroke:#181818;stroke-width:0.5;"/><line style="stroke:#181818;stroke-width:0.5;" x1="1467.5" x2="1491.5" y1="63" y2="63"/><text fill="#000000" font-family="sans-serif" font-size="14" lengthAdjust="spacing" textLength="38" x="1457.5" y="1028.584">TACo</text><ellipse cx="1479.5" cy="1047.5371" fill="#E2E2F0" rx="12" ry="12" style="stroke:#181818;stroke-width:0.5;"/><line style="stroke:#181818;stroke-width:0.5;" x1="1467.5" x2="1491.5" y1="1061.5371" y2="1061.5371"/><text fill="#000000" font-family="sans-serif" font-size="14" lengthAdjust="spacing" textLength="63" x="1511.5" y="78.5352">Compute</text><ellipse cx="1546" cy="49" fill="#E2E2F0" rx="12" ry="12" style="stroke:#181818;stroke-width:0.5;"/><line style="stroke:#181818;stroke-width:0.5;" x1="1534" x2="1558" y1="63" y2="63"/><text fill="#000000" font-family="sans-serif" font-size="14" lengthAdjust="spacing" textLength="63" x="1511.5" y="1028.584">Compute</text><ellipse cx="1546" cy="1047.5371" fill="#E2E2F0" rx="12" ry="12" style="stroke:#181818;stroke-width:0.5;"/><line style="stroke:#181818;stroke-width:0.5;" x1="1534" x2="1558" y1="1061.5371" y2="1061.5371"/><text fill="#000000" font-family="sans-serif" font-size="14" lengthAdjust="spacing" textLength="67" x="1590.5" y="78.5352">Exchange</text><ellipse cx="1627" cy="49" fill="#E2E2F0" rx="12" ry="12" style="stroke:#181818;stroke-width:0.5;"/><line style="stroke:#181818;stroke-width:0.5;" x1="1615" x2="1639" y1="63" y2="63"/><text fill="#000000" font-family="sans-serif" font-size="14" lengthAdjust="spacing" textLength="67" x="1590.5" y="1028.584">Exchange</text><ellipse cx="1627" cy="1047.5371" fill="#E2E2F0" rx="12" ry="12" style="stroke:#181818;stroke-width:0.5;"/><line style="stroke:#181818;stroke-width:0.5;" x1="1615" x2="1639" y1="1061.5371" y2="1061.5371"/><rect fill="#E2E2F0" height="30.4883" rx="2.5" ry="2.5" style="stroke:#181818;stroke-width:0.5;" width="98" x="1673.5" y="50"/><text fill="#000000" font-family="sans-serif" font-size="14" lengthAdjust="spacing" textLength="84" x="1680.5" y="70.5352">marketplace</text><rect fill="#E2E2F0" height="30.4883" rx="2.5" ry="2.5" style="stroke:#181818;stroke-width:0.5;" width="98" x="1673.5" y="1015.0488"/><text fill="#000000" font-family="sans-serif" font-size="14" lengthAdjust="spacing" textLength="84" x="1680.5" y="1035.584">marketplace</text><rect fill="#E2E2F0" height="30.4883" rx="2.5" ry="2.5" style="stroke:#181818;stroke-width:0.5;" width="52" x="1781.5" y="50"/><text fill="#000000" font-family="sans-serif" font-size="14" lengthAdjust="spacing" textLength="38" x="1788.5" y="70.5352">TACo</text><rect fill="#E2E2F0" height="30.4883" rx="2.5" ry="2.5" style="stroke:#181818;stroke-width:0.5;" width="52" x="1781.5" y="1015.0488"/><text fill="#000000" font-family="sans-serif" font-size="14" lengthAdjust="spacing" textLength="38" x="1788.5" y="1035.584">TACo</text><rect fill="#E2E2F0" height="30.4883" rx="2.5" ry="2.5" style="stroke:#181818;stroke-width:0.5;" width="80" x="2200.5" y="50"/><text fill="#000000" font-family="sans-serif" font-size="14" lengthAdjust="spacing" textLength="66" x="2207.5" y="70.5352">computer</text><rect fill="#E2E2F0" height="30.4883" rx="2.5" ry="2.5" style="stroke:#181818;stroke-width:0.5;" width="80" x="2200.5" y="1015.0488"/><text fill="#000000" font-family="sans-serif" font-size="14" lengthAdjust="spacing" textLength="66" x="2207.5" y="1035.584">computer</text><polygon fill="#181818" points="451,108.7988,461,112.7988,451,116.7988,455,112.7988" style="stroke:#181818;stroke-width:1.0;"/><line style="stroke:#181818;stroke-width:1.0;" x1="76" x2="457" y1="112.7988" y2="112.7988"/><text fill="#000000" font-family="sans-serif" font-size="13" lengthAdjust="spacing" textLength="119" x="83" y="108.0566">Browse data assets</text><polygon fill="#181818" points="451,138.1094,461,142.1094,451,146.1094,455,142.1094" style="stroke:#181818;stroke-width:1.0;"/><line style="stroke:#181818;stroke-width:1.0;" x1="76" x2="457" y1="142.1094" y2="142.1094"/><text fill="#000000" font-family="sans-serif" font-size="13" lengthAdjust="spacing" textLength="363" x="83" y="137.3672">View specific data asset sample and its access conditions</text><path d="M10,157.1094 L72,157.1094 L72,164.4199 L62,174.4199 L10,174.4199 L10,157.1094 " fill="#EEEEEE" style="stroke:#000000;stroke-width:1.5;"/><rect fill="none" height="46.6211" style="stroke:#000000;stroke-width:1.5;" width="1663.5" x="10" y="157.1094"/><text fill="#000000" font-family="sans-serif" font-size="13" font-weight="bold" lengthAdjust="spacing" textLength="17" x="25" y="170.6777">alt</text><text fill="#000000" font-family="sans-serif" font-size="11" font-weight="bold" lengthAdjust="spacing" textLength="387" x="87" y="169.7441">[If Data asset contains NFT or ERC20 ownership as access condition]</text><polygon fill="#181818" points="1615,191.7305,1625,195.7305,1615,199.7305,1619,195.7305" style="stroke:#181818;stroke-width:1.0;"/><line style="stroke:#181818;stroke-width:1.0;" x1="76" x2="1621" y1="195.7305" y2="195.7305"/><text fill="#000000" font-family="sans-serif" font-size="13" lengthAdjust="spacing" textLength="159" x="83" y="190.9883">Buy NFT or ERC20 tokens</text><path d="M10,217.7305 L72,217.7305 L72,225.041 L62,235.041 L10,235.041 L10,217.7305 " fill="#EEEEEE" style="stroke:#000000;stroke-width:1.5;"/><rect fill="none" height="574.1445" style="stroke:#000000;stroke-width:1.5;" width="2235.5" x="10" y="217.7305"/><text fill="#000000" font-family="sans-serif" font-size="13" font-weight="bold" lengthAdjust="spacing" textLength="17" x="25" y="231.2988">alt</text><text fill="#000000" font-family="sans-serif" font-size="11" font-weight="bold" lengthAdjust="spacing" textLength="141" x="87" y="230.3652">[If new application/code]</text><polygon fill="#181818" points="794,252.3516,804,256.3516,794,260.3516,798,256.3516" style="stroke:#181818;stroke-width:1.0;"/><line style="stroke:#181818;stroke-width:1.0;" x1="76" x2="800" y1="256.3516" y2="256.3516"/><text fill="#000000" font-family="sans-serif" font-size="13" lengthAdjust="spacing" textLength="176" x="83" y="251.6094">Submit application code file</text><line style="stroke:#181818;stroke-width:1.0;" x1="806" x2="848" y1="285.6621" y2="285.6621"/><line style="stroke:#181818;stroke-width:1.0;" x1="848" x2="848" y1="285.6621" y2="298.6621"/><line style="stroke:#181818;stroke-width:1.0;" x1="807" x2="848" y1="298.6621" y2="298.6621"/><polygon fill="#181818" points="817,294.6621,807,298.6621,817,302.6621,813,298.6621" style="stroke:#181818;stroke-width:1.0;"/><text fill="#000000" font-family="sans-serif" font-size="13" lengthAdjust="spacing" textLength="243" x="813" y="280.9199">Audit code using LLM, SonraQube, etc.</text><path d="M408.5,313.6621 L470.5,313.6621 L470.5,320.9727 L460.5,330.9727 L408.5,330.9727 L408.5,313.6621 " fill="#EEEEEE" style="stroke:#000000;stroke-width:1.5;"/><rect fill="none" height="162.5078" style="stroke:#000000;stroke-width:1.5;" width="1373" x="408.5" y="313.6621"/><text fill="#000000" font-family="sans-serif" font-size="13" font-weight="bold" lengthAdjust="spacing" textLength="17" x="423.5" y="327.2305">alt</text><text fill="#000000" font-family="sans-serif" font-size="11" font-weight="bold" lengthAdjust="spacing" textLength="119" x="485.5" y="326.2969">[If code is Malicious]</text><polygon fill="#181818" points="1710.5,348.2832,1720.5,352.2832,1710.5,356.2832,1714.5,352.2832" style="stroke:#181818;stroke-width:1.0;"/><line style="stroke:#181818;stroke-width:1.0;" x1="806" x2="1716.5" y1="352.2832" y2="352.2832"/><text fill="#000000" font-family="sans-serif" font-size="13" lengthAdjust="spacing" textLength="146" x="813" y="347.541">Reject application code</text><line style="stroke:#000000;stroke-width:1.0;stroke-dasharray:2.0,2.0;" x1="408.5" x2="1781.5" y1="361.2832" y2="361.2832"/><text fill="#000000" font-family="sans-serif" font-size="11" font-weight="bold" lengthAdjust="spacing" textLength="90" x="413.5" y="371.918">[Code is secure]</text><line style="stroke:#181818;stroke-width:1.0;" x1="806" x2="848" y1="396.5488" y2="396.5488"/><line style="stroke:#181818;stroke-width:1.0;" x1="848" x2="848" y1="396.5488" y2="409.5488"/><line style="stroke:#181818;stroke-width:1.0;" x1="807" x2="848" y1="409.5488" y2="409.5488"/><polygon fill="#181818" points="817,405.5488,807,409.5488,817,413.5488,813,409.5488" style="stroke:#181818;stroke-width:1.0;"/><text fill="#000000" font-family="sans-serif" font-size="13" lengthAdjust="spacing" textLength="287" x="813" y="391.8066">Create code hash and generate Application ID</text><polygon fill="#181818" points="1255,434.8594,1265,438.8594,1255,442.8594,1259,438.8594" style="stroke:#181818;stroke-width:1.0;"/><line style="stroke:#181818;stroke-width:1.0;" x1="806" x2="1261" y1="438.8594" y2="438.8594"/><text fill="#000000" font-family="sans-serif" font-size="13" lengthAdjust="spacing" textLength="437" x="813" y="434.1172">Store code hash, application ID, wallet address and audit certification</text><polygon fill="#181818" points="474,464.1699,464,468.1699,474,472.1699,470,468.1699" style="stroke:#181818;stroke-width:1.0;"/><line style="stroke:#181818;stroke-width:1.0;" x1="468" x2="805" y1="468.1699" y2="468.1699"/><text fill="#000000" font-family="sans-serif" font-size="13" lengthAdjust="spacing" textLength="319" x="480" y="463.4277">Return code approval certificate and application ID</text><polygon fill="#181818" points="87,500.4805,77,504.4805,87,508.4805,83,504.4805" style="stroke:#181818;stroke-width:1.0;"/><line style="stroke:#181818;stroke-width:1.0;" x1="81" x2="1721.5" y1="504.4805" y2="504.4805"/><text fill="#000000" font-family="sans-serif" font-size="13" lengthAdjust="spacing" textLength="354" x="93" y="499.7383">Notify consumer for code approval status application ID</text><line style="stroke:#000000;stroke-width:1.0;stroke-dasharray:2.0,2.0;" x1="10" x2="2245.5" y1="513.4805" y2="513.4805"/><text fill="#000000" font-family="sans-serif" font-size="11" font-weight="bold" lengthAdjust="spacing" textLength="161" x="15" y="524.1152">[Application already audited]</text><polygon fill="#181818" points="451,544.7461,461,548.7461,451,552.7461,455,548.7461" style="stroke:#181818;stroke-width:1.0;"/><line style="stroke:#181818;stroke-width:1.0;" x1="76" x2="457" y1="548.7461" y2="548.7461"/><text fill="#000000" font-family="sans-serif" font-size="13" lengthAdjust="spacing" textLength="297" x="83" y="544.0039">Submit application code file and Application ID</text><polygon fill="#181818" points="794,574.0566,804,578.0566,794,582.0566,798,578.0566" style="stroke:#181818;stroke-width:1.0;"/><line style="stroke:#181818;stroke-width:1.0;" x1="463" x2="800" y1="578.0566" y2="578.0566"/><text fill="#000000" font-family="sans-serif" font-size="13" lengthAdjust="spacing" textLength="123" x="470" y="573.3145">Generate code hash</text><polygon fill="#181818" points="1795.5,603.3672,1805.5,607.3672,1795.5,611.3672,1799.5,607.3672" style="stroke:#181818;stroke-width:1.0;"/><line style="stroke:#181818;stroke-width:1.0;" x1="463" x2="1801.5" y1="607.3672" y2="607.3672"/><text fill="#000000" font-family="sans-serif" font-size="13" lengthAdjust="spacing" textLength="492" x="470" y="602.625">Decrypt request with context parameters (wallet ID, code hash, application ID)</text><polygon fill="#181818" points="1278,632.6777,1268,636.6777,1278,640.6777,1274,636.6777" style="stroke:#181818;stroke-width:1.0;"/><line style="stroke:#181818;stroke-width:1.0;" x1="1272" x2="1806.5" y1="636.6777" y2="636.6777"/><text fill="#000000" font-family="sans-serif" font-size="13" lengthAdjust="spacing" textLength="429" x="1284" y="631.9355">Fetch certification status for code hash, application ID and wallet ID</text><line style="stroke:#181818;stroke-width:1.0;" x1="1807.5" x2="1849.5" y1="665.9883" y2="665.9883"/><line style="stroke:#181818;stroke-width:1.0;" x1="1849.5" x2="1849.5" y1="665.9883" y2="678.9883"/><line style="stroke:#181818;stroke-width:1.0;" x1="1808.5" x2="1849.5" y1="678.9883" y2="678.9883"/><polygon fill="#181818" points="1818.5,674.9883,1808.5,678.9883,1818.5,682.9883,1814.5,678.9883" style="stroke:#181818;stroke-width:1.0;"/><text fill="#000000" font-family="sans-serif" font-size="13" lengthAdjust="spacing" textLength="419" x="1814.5" y="661.2461">verify NFT or ERC20 ownership if such access conditions specified</text><path d="M408.5,693.9883 L470.5,693.9883 L470.5,701.2988 L460.5,711.2988 L408.5,711.2988 L408.5,693.9883 " fill="#EEEEEE" style="stroke:#000000;stroke-width:1.5;"/><rect fill="none" height="90.8867" style="stroke:#000000;stroke-width:1.5;" width="1435" x="408.5" y="693.9883"/><text fill="#000000" font-family="sans-serif" font-size="13" font-weight="bold" lengthAdjust="spacing" textLength="17" x="423.5" y="707.5566">alt</text><text fill="#000000" font-family="sans-serif" font-size="11" font-weight="bold" lengthAdjust="spacing" textLength="161" x="485.5" y="706.623">[If TACo conditions are met]</text><polygon fill="#181818" points="474,728.6094,464,732.6094,474,736.6094,470,732.6094" style="stroke:#181818;stroke-width:1.0;"/><line style="stroke:#181818;stroke-width:1.0;" x1="468" x2="1806.5" y1="732.6094" y2="732.6094"/><text fill="#000000" font-family="sans-serif" font-size="13" lengthAdjust="spacing" textLength="382" x="480" y="727.8672">return decrypted data asset and Ready for Compute message</text><line style="stroke:#000000;stroke-width:1.0;stroke-dasharray:2.0,2.0;" x1="408.5" x2="1843.5" y1="741.6094" y2="741.6094"/><text fill="#000000" font-family="sans-serif" font-size="11" font-weight="bold" lengthAdjust="spacing" textLength="170" x="413.5" y="752.2441">[TACo conditions are not met]</text><polygon fill="#181818" points="474,772.875,464,776.875,474,780.875,470,776.875" style="stroke:#181818;stroke-width:1.0;"/><line style="stroke:#181818;stroke-width:1.0;" x1="468" x2="1806.5" y1="776.875" y2="776.875"/><text fill="#000000" font-family="sans-serif" font-size="13" lengthAdjust="spacing" textLength="130" x="480" y="772.1328">return access denied</text><path d="M10,805.875 L72,805.875 L72,813.1855 L62,823.1855 L10,823.1855 L10,805.875 " fill="#EEEEEE" style="stroke:#000000;stroke-width:1.5;"/><rect fill="none" height="193.1738" style="stroke:#000000;stroke-width:1.5;" width="2280.5" x="10" y="805.875"/><text fill="#000000" font-family="sans-serif" font-size="13" font-weight="bold" lengthAdjust="spacing" textLength="17" x="25" y="819.4434">alt</text><text fill="#000000" font-family="sans-serif" font-size="11" font-weight="bold" lengthAdjust="spacing" textLength="210" x="87" y="818.5098">[If Data asset is ready for commpute]</text><polygon fill="#181818" points="451,840.4961,461,844.4961,451,848.4961,455,844.4961" style="stroke:#181818;stroke-width:1.0;"/><line style="stroke:#181818;stroke-width:1.0;" x1="76" x2="457" y1="844.4961" y2="844.4961"/><text fill="#000000" font-family="sans-serif" font-size="13" lengthAdjust="spacing" textLength="199" x="83" y="839.7539">Request for data asset compute</text><polygon fill="#181818" points="1534,869.8066,1544,873.8066,1534,877.8066,1538,873.8066" style="stroke:#181818;stroke-width:1.0;"/><line style="stroke:#181818;stroke-width:1.0;" x1="463" x2="1540" y1="873.8066" y2="873.8066"/><text fill="#000000" font-family="sans-serif" font-size="13" lengthAdjust="spacing" textLength="312" x="470" y="869.0645">Submit code docker file and Decrypted data asset</text><polygon fill="#181818" points="474,899.1172,464,903.1172,474,907.1172,470,903.1172" style="stroke:#181818;stroke-width:1.0;"/><line style="stroke:#181818;stroke-width:1.0;" x1="468" x2="1545" y1="903.1172" y2="903.1172"/><text fill="#000000" font-family="sans-serif" font-size="13" lengthAdjust="spacing" textLength="142" x="480" y="898.375">Return compute job ID</text><polygon fill="#181818" points="87,928.4277,77,932.4277,87,936.4277,83,932.4277" style="stroke:#181818;stroke-width:1.0;"/><line style="stroke:#181818;stroke-width:1.0;" x1="81" x2="462" y1="932.4277" y2="932.4277"/><text fill="#000000" font-family="sans-serif" font-size="13" lengthAdjust="spacing" textLength="228" x="93" y="927.6855">Notify consumer for compute job ID</text><polygon fill="#181818" points="474,957.7383,464,961.7383,474,965.7383,470,961.7383" style="stroke:#181818;stroke-width:1.0;"/><line style="stroke:#181818;stroke-width:1.0;" x1="468" x2="2239.5" y1="961.7383" y2="961.7383"/><text fill="#000000" font-family="sans-serif" font-size="13" lengthAdjust="spacing" textLength="163" x="480" y="956.9961">return compute result File</text><polygon fill="#181818" points="87,987.0488,77,991.0488,87,995.0488,83,991.0488" style="stroke:#181818;stroke-width:1.0;"/><line style="stroke:#181818;stroke-width:1.0;" x1="81" x2="462" y1="991.0488" y2="991.0488"/><text fill="#000000" font-family="sans-serif" font-size="13" lengthAdjust="spacing" textLength="252" x="93" y="986.3066">Notify consumer for compute result File</text><!--SRC=[dLLDRzim3BtxLn0vRK2w3JlcCA2Dsw50qs59iJiZqObQs_8akMd-_IZ9TkHyTCDoYIsHZn_laKRXj859ZWvXhclRLcGcW1P4zv9HxPJRmsI1veLSKwAWO92y3pRNhLGERb2yK2rXHUPLTTReRuxiLXKQvmCvWy8TpFgJJ79MQxG4anz5SJNVegeXlmc6kYY4VvVh0VJfUgx3dKEXXzEvhfhMKLTJU1xkRjyOezx4I-fUigml7Qw-fLNEuCRe7MVZqs8FIyvUieKP_5Aq0zkGK8KIYGzOh9gI0Bb3od79Gf0D_URI5SDb6POExWl83pw-9LojXSUx9s32RfVphrz0xseoTgkQqBeZd0pubwRN5yXrjFinaDDCcEM-o25upTbZqvHAe4VxBBIa4yX05zUwQjSLFoJsuEsXK6LqYeQ9HrH0C6gjgZVmyB2OmahN1d-sQve2EV4fYxuneM2hlEuuXjAj3PSZy6f4m9AUIPmc5ToeP1xd7Q8bqHewXGiFCvWRGaSn_XRjDZ2t8MwzFxvEuE_p2o2zehbJF6u9rdIKtdq-XHsM9HEEKXfFfuyLiGGPvwM40xcZE8kZsbrhEX8uWj6lM2O8KNruchfNWFzFEydW0-SpUDICiJ-S52oYSHZhqBNs77eMsfvs34jkhjp7CaYU26nSrNio2nMT8MCnhgJNt_UUlu6ASzP-fR1nJiBi6mU6VhTa7UoKsuQHf3S73HgioF4WmeUEFC_ZHOe_HbK7w6DzSAmx5lvsJ7RVqQ7Lvs13_KFyKOYkYbSodhaB6qGLO5kEVBAE-Xt6xAJZ640JAsHPSni6OVR1nmoQg4iP6qeotOk-W6LGWo-qszkCQIrk3jCvVWY2EfTAhTs_fzFLBAbMdGRz7AJRC5d5l33Ca2L_KU8dvNtXBZlXU1UPRlM3y-9uucBvW-W3yLBpbzKSz9wVwMENIdI_l1ZY_RDUNnYKluxy2K1tP2wskVVXnTPoM-_wZyF_HKvHF5L_0000]--></g></svg>